<svg xmlns="http://www.w3.org/2000/svg" viewBox="0 0 1200 700"><defs><linearGradient id="g" x1="0" y1="0" x2="1" y2="1"><stop stop-color="#ff7a00"/><stop offset="1" stop-color="#232323"/></linearGradient><radialGradient id="r" cx="50%" cy="45%" r="70%"><stop stop-color="#ff9d00" stop-opacity=".65"/><stop offset="1" stop-color="#080808" stop-opacity="0"/></radialGradient></defs><rect width="1200" height="700" fill="#080808"/><circle cx="250" cy="180" r="260" fill="url(#r)"/><circle cx="960" cy="520" r="300" fill="url(#r)" opacity=".45"/><path d="M0 510C210 460 390 570 610 518c260-62 396-210 590-180v362H0z" fill="url(#g)" opacity=".20"/><g stroke="#ff8a00" stroke-opacity=".22"><path d="M0 120h1200M0 240h1200M0 360h1200M0 480h1200M0 600h1200M120 0v700M240 0v700M360 0v700M480 0v700M600 0v700M720 0v700M840 0v700M960 0v700M1080 0v700"/></g></svg>